<?xml version="1.0" encoding="UTF-8"?>
<svg id="Layer_1" xmlns="http://www.w3.org/2000/svg" version="1.1" xmlns:xlink="http://www.w3.org/1999/xlink" viewBox="0 0 64 64">
  <!-- Generator: Adobe Illustrator 29.1.0, SVG Export Plug-In . SVG Version: 2.1.0 Build 142)  -->
  <defs>
    <style>
      .st0 {
        fill: url(#linear-gradient2);
      }

      .st1 {
        fill: url(#linear-gradient1);
      }

      .st2 {
        fill: #0e1317;
      }

      .st3 {
        isolation: isolate;
        opacity: .95;
      }

      .st4 {
        fill: url(#linear-gradient3);
      }

      .st5 {
        fill: url(#linear-gradient);
      }
    </style>
    <linearGradient id="linear-gradient" x1="44.19" y1="45.89" x2="56.15" y2="45.89" gradientUnits="userSpaceOnUse">
      <stop offset="0" stop-color="#86efac"/>
      <stop offset="1" stop-color="#34d399"/>
    </linearGradient>
    <linearGradient id="linear-gradient1" x1="13.83" y1="21.67" x2="37.01" y2="21.67" xlink:href="#linear-gradient"/>
    <linearGradient id="linear-gradient2" x1="24.76" y1="37.34" x2="46.58" y2="37.34" xlink:href="#linear-gradient"/>
    <linearGradient id="linear-gradient3" x1="5.54" y1="45.91" x2="17.5" y2="45.91" xlink:href="#linear-gradient"/>
  </defs>
  <rect class="st2" width="64" height="64" rx="12" ry="12"/>
  <g class="st3">
    <path class="st5" d="M55.34,48.93c-1.66,2.89-5.32,3.88-8.17,2.19-2.85-1.68-3.82-5.39-2.16-8.29s5.32-3.88,8.17-2.19c2.85,1.68,3.82,5.39,2.16,8.29Z"/>
    <path class="st1" d="M16.81,36.69h0c-2.85-1.68-3.82-5.39-2.16-8.29l11.22-19.56c1.66-2.89,5.32-3.88,8.17-2.19h0c2.85,1.68,3.82,5.39,2.16,8.29l-11.22,19.56c-1.66,2.89-5.32,3.88-8.17,2.19Z"/>
    <path class="st0" d="M27.73,51.18h0c-2.85-1.68-3.82-5.39-2.16-8.29l9.86-17.19c1.66-2.89,5.32-3.88,8.17-2.19h0c2.85,1.68,3.82,5.39,2.16,8.29l-9.86,17.19c-1.66,2.89-5.32,3.88-8.17,2.19Z"/>
    <path class="st4" d="M16.69,48.96c-1.66,2.89-5.32,3.88-8.17,2.19-2.85-1.68-3.82-5.39-2.16-8.29,1.66-2.89,5.32-3.88,8.17-2.19,2.85,1.68,3.82,5.39,2.16,8.29Z"/>
  </g>
</svg>